<svg id="pantone" xmlns="http://www.w3.org/2000/svg" viewBox="0 0 353.13 89.43"><defs><style>.cls-1{fill:#d31245;}.cls-2{fill:#807f83;}</style></defs><polygon class="cls-1" points="113.53 51.39 113.53 24.46 146.51 24.46 146.51 27.57 116.72 27.57 116.72 51.39 113.53 51.39"/><rect class="cls-1" x="113.53" width="36.03" height="3.05"/><rect class="cls-1" x="17.99" y="24.57" width="3.19" height="26.82"/><rect class="cls-1" width="39.16" height="3.05"/><polygon class="cls-1" points="163.25 51.39 163.25 24.46 196.23 24.46 196.23 27.57 166.44 27.57 166.44 51.39 163.25 51.39"/><rect class="cls-1" x="163.25" width="36.03" height="3.05"/><polygon class="cls-1" points="212.98 51.39 212.98 25.39 216.17 25.39 216.17 48.35 246.74 48.35 246.74 51.39 212.98 51.39"/><path class="cls-1" d="M466.64,179.22l-16.49-21.69v-3.06h.23c10-.09,15.94-4.46,15.94-11.68,0-7.62-5.69-11.91-15.61-11.91H432.88v48.34h-3.19V127.83h21.15c6.59,0,11.59,1.66,14.86,4.92a13.54,13.54,0,0,1,3.79,9.82c0,8.2-5.91,13.72-15.55,14.76l16.66,21.89Z" transform="translate(-117.47 -127.83)"/><rect class="cls-1" x="259.86" width="36.39" height="3.05"/><polygon class="cls-1" points="259.86 51.39 259.86 24.04 293.19 24.04 293.19 27.07 263.05 27.07 263.05 48.35 296.6 48.35 296.6 51.39 259.86 51.39"/><path class="cls-1" d="M211.48,154.84V154c-.15-11.39-8.57-23.17-22.42-23.17-12.6,0-22.18,10-22.28,23.17v.8h-3.19V154c.14-14.94,11.12-26.2,25.54-26.2s25.41,11.26,25.55,26.2v.81Z" transform="translate(-117.47 -127.83)"/><path class="cls-2" d="M195.41,202.52H197l6.66,14.5h-1.77l-1.71-3.81h-8L190.44,217h-1.7Zm4.07,9.23-3.32-7.34-3.34,7.34Z" transform="translate(-117.47 -127.83)"/><path class="cls-2" d="M213.6,214.92l1-1.19a7,7,0,0,0,5,2c2,0,3.26-1,3.26-2.44v0c0-1.34-.73-2.1-3.8-2.74-3.37-.72-4.91-1.79-4.91-4.15v0c0-2.27,2-3.93,4.8-3.93a7.71,7.71,0,0,1,5.14,1.77l-1,1.25a6.49,6.49,0,0,0-4.22-1.56c-1.9,0-3.11,1-3.11,2.32v0c0,1.36.75,2.12,4,2.8s4.76,1.87,4.76,4.07v0c0,2.47-2.09,4.07-5,4.07A8.66,8.66,0,0,1,213.6,214.92Z" transform="translate(-117.47 -127.83)"/><path class="cls-2" d="M235.12,214.92l1-1.19a7,7,0,0,0,5,2c2,0,3.26-1,3.26-2.44v0c0-1.34-.73-2.1-3.8-2.74-3.36-.72-4.91-1.79-4.91-4.15v0c0-2.27,2-3.93,4.81-3.93a7.69,7.69,0,0,1,5.13,1.77l-1,1.25a6.47,6.47,0,0,0-4.22-1.56c-1.9,0-3.11,1-3.11,2.32v0c0,1.36.75,2.12,4,2.8s4.76,1.87,4.76,4.07v0c0,2.47-2.09,4.07-5,4.07A8.62,8.62,0,0,1,235.12,214.92Z" transform="translate(-117.47 -127.83)"/><path class="cls-2" d="M257.15,209.86v0a7.46,7.46,0,0,1,14.92,0s0,0,0,0a7.46,7.46,0,0,1-14.92,0Zm13.2,0v0a5.76,5.76,0,0,0-5.76-5.94,5.69,5.69,0,0,0-5.72,5.9v0a5.76,5.76,0,0,0,5.76,5.94A5.69,5.69,0,0,0,270.35,209.86Z" transform="translate(-117.47 -127.83)"/><path class="cls-2" d="M283.26,209.86v0a7.3,7.3,0,0,1,7.4-7.44,7.65,7.65,0,0,1,5.7,2.28l-1.13,1.19a6.4,6.4,0,0,0-4.59-2,5.68,5.68,0,0,0-5.66,5.9v0a5.72,5.72,0,0,0,5.66,5.94,6.38,6.38,0,0,0,4.71-2.07l1.09,1.05a7.65,7.65,0,0,1-5.85,2.52A7.24,7.24,0,0,1,283.26,209.86Z" transform="translate(-117.47 -127.83)"/><path class="cls-2" d="M307.83,202.62h1.65V217h-1.65Z" transform="translate(-117.47 -127.83)"/><path class="cls-2" d="M327.52,202.52h1.55l6.66,14.5H334l-1.72-3.81h-7.95L322.55,217h-1.69Zm4.08,9.23-3.32-7.34-3.35,7.34Z" transform="translate(-117.47 -127.83)"/><path class="cls-2" d="M349,204.12H344v-1.5h11.49v1.5h-4.91V217H349Z" transform="translate(-117.47 -127.83)"/><path class="cls-2" d="M367,202.62h10.57v1.48h-8.92V209h8v1.48h-8v5h9V217H367Z" transform="translate(-117.47 -127.83)"/><path class="cls-2" d="M388.37,214.92l1-1.19a7,7,0,0,0,5,2c2,0,3.26-1,3.26-2.44v0c0-1.34-.73-2.1-3.8-2.74-3.36-.72-4.91-1.79-4.91-4.15v0c0-2.27,2-3.93,4.81-3.93a7.69,7.69,0,0,1,5.13,1.77l-1,1.25a6.45,6.45,0,0,0-4.22-1.56c-1.9,0-3.11,1-3.11,2.32v0c0,1.36.76,2.12,4,2.8s4.76,1.87,4.76,4.07v0c0,2.47-2.09,4.07-5,4.07A8.62,8.62,0,0,1,388.37,214.92Z" transform="translate(-117.47 -127.83)"/></svg>